<svg id="visual" viewBox="0 0 900 600" width="900" height="600" xmlns="http://www.w3.org/2000/svg" xmlns:xlink="http://www.w3.org/1999/xlink" version="1.1"><path d="M0 384L21.5 380C43 376 86 368 128.8 367C171.7 366 214.3 372 257.2 383.5C300 395 343 412 385.8 407.8C428.7 403.7 471.3 378.3 514.2 374.7C557 371 600 389 642.8 404.2C685.7 419.3 728.3 431.7 771.2 431.7C814 431.7 857 419.3 878.5 413.2L900 407L900 601L878.5 601C857 601 814 601 771.2 601C728.3 601 685.7 601 642.8 601C600 601 557 601 514.2 601C471.3 601 428.7 601 385.8 601C343 601 300 601 257.2 601C214.3 601 171.7 601 128.8 601C86 601 43 601 21.5 601L0 601Z" fill="#fccc00"></path><path d="M0 397L21.5 396.7C43 396.3 86 395.7 128.8 407.7C171.7 419.7 214.3 444.3 257.2 450.7C300 457 343 445 385.8 435C428.7 425 471.3 417 514.2 419.7C557 422.3 600 435.7 642.8 441.2C685.7 446.7 728.3 444.3 771.2 445.2C814 446 857 450 878.5 452L900 454L900 601L878.5 601C857 601 814 601 771.2 601C728.3 601 685.7 601 642.8 601C600 601 557 601 514.2 601C471.3 601 428.7 601 385.8 601C343 601 300 601 257.2 601C214.3 601 171.7 601 128.8 601C86 601 43 601 21.5 601L0 601Z" fill="#b09a15"></path><path d="M0 487L21.5 484.3C43 481.7 86 476.3 128.8 471.2C171.7 466 214.3 461 257.2 458.5C300 456 343 456 385.8 453.7C428.7 451.3 471.3 446.7 514.2 445.5C557 444.3 600 446.7 642.8 448.3C685.7 450 728.3 451 771.2 456C814 461 857 470 878.5 474.5L900 479L900 601L878.5 601C857 601 814 601 771.2 601C728.3 601 685.7 601 642.8 601C600 601 557 601 514.2 601C471.3 601 428.7 601 385.8 601C343 601 300 601 257.2 601C214.3 601 171.7 601 128.8 601C86 601 43 601 21.5 601L0 601Z" fill="#6f681a"></path><path d="M0 530L21.5 529.7C43 529.3 86 528.7 128.8 530.5C171.7 532.3 214.3 536.7 257.2 534C300 531.3 343 521.7 385.8 515.8C428.7 510 471.3 508 514.2 510.5C557 513 600 520 642.8 524.7C685.7 529.3 728.3 531.7 771.2 533C814 534.3 857 534.7 878.5 534.8L900 535L900 601L878.5 601C857 601 814 601 771.2 601C728.3 601 685.7 601 642.8 601C600 601 557 601 514.2 601C471.3 601 428.7 601 385.8 601C343 601 300 601 257.2 601C214.3 601 171.7 601 128.8 601C86 601 43 601 21.5 601L0 601Z" fill="#393816"></path><path d="M0 553L21.5 548.2C43 543.3 86 533.7 128.8 532.2C171.7 530.7 214.3 537.3 257.2 544.7C300 552 343 560 385.8 556.7C428.7 553.3 471.3 538.7 514.2 532.7C557 526.7 600 529.3 642.8 535C685.7 540.7 728.3 549.3 771.2 549.8C814 550.3 857 542.7 878.5 538.8L900 535L900 601L878.5 601C857 601 814 601 771.2 601C728.3 601 685.7 601 642.8 601C600 601 557 601 514.2 601C471.3 601 428.7 601 385.8 601C343 601 300 601 257.2 601C214.3 601 171.7 601 128.8 601C86 601 43 601 21.5 601L0 601Z" fill="#090907"></path></svg>