<svg id="visual" viewBox="0 0 900 600" width="900" height="600" xmlns="http://www.w3.org/2000/svg" xmlns:xlink="http://www.w3.org/1999/xlink" version="1.1"><path d="M854 600L854 566.7C854 533.3 854 466.7 854 400C854 333.3 854 266.7 854 200C854 133.3 854 66.7 854 33.3L854 0L900 0L900 33.3C900 66.7 900 133.3 900 200C900 266.7 900 333.3 900 400C900 466.7 900 533.3 900 566.7L900 600Z" fill="#090907"></path><path d="M809 600L809 566.7C809 533.3 809 466.7 809 400C809 333.3 809 266.7 809 200C809 133.3 809 66.7 809 33.3L809 0L855 0L855 33.3C855 66.7 855 133.3 855 200C855 266.7 855 333.3 855 400C855 466.7 855 533.3 855 566.7L855 600Z" fill="#3e3d17"></path><path d="M701 600L701 566.7C701 533.3 701 466.7 701 400C701 333.3 701 266.7 701 200C701 133.3 701 66.7 701 33.3L701 0L810 0L810 33.3C810 66.7 810 133.3 810 200C810 266.7 810 333.3 810 400C810 466.7 810 533.3 810 566.7L810 600Z" fill="#7d731a"></path><path d="M530 600L527 566.7C524 533.3 518 466.7 519.5 400C521 333.3 530 266.7 528.5 200C527 133.3 515 66.7 509 33.3L503 0L702 0L702 33.3C702 66.7 702 133.3 702 200C702 266.7 702 333.3 702 400C702 466.7 702 533.3 702 566.7L702 600Z" fill="#c8aa11"></path><path d="M476 600L473 566.7C470 533.3 464 466.7 467 400C470 333.3 482 266.7 480.5 200C479 133.3 464 66.7 456.5 33.3L449 0L504 0L510 33.3C516 66.7 528 133.3 529.5 200C531 266.7 522 333.3 520.5 400C519 466.7 525 533.3 528 566.7L531 600Z" fill="#fccc00"></path><path d="M278 600L275 566.7C272 533.3 266 466.7 266 400C266 333.3 272 266.7 272 200C272 133.3 266 66.7 263 33.3L260 0L450 0L457.5 33.3C465 66.7 480 133.3 481.5 200C483 266.7 471 333.3 468 400C465 466.7 471 533.3 474 566.7L477 600Z" fill="#fccc00"></path><path d="M206 600L204.5 566.7C203 533.3 200 466.7 200 400C200 333.3 203 266.7 203 200C203 133.3 200 66.7 198.5 33.3L197 0L261 0L264 33.3C267 66.7 273 133.3 273 200C273 266.7 267 333.3 267 400C267 466.7 273 533.3 276 566.7L279 600Z" fill="#c8aa11"></path><path d="M152 600L150.5 566.7C149 533.3 146 466.7 146 400C146 333.3 149 266.7 149 200C149 133.3 146 66.7 144.5 33.3L143 0L198 0L199.5 33.3C201 66.7 204 133.3 204 200C204 266.7 201 333.3 201 400C201 466.7 204 533.3 205.5 566.7L207 600Z" fill="#7d731a"></path><path d="M62 600L62 566.7C62 533.3 62 466.7 62 400C62 333.3 62 266.7 62 200C62 133.3 62 66.7 62 33.3L62 0L144 0L145.5 33.3C147 66.7 150 133.3 150 200C150 266.7 147 333.3 147 400C147 466.7 150 533.3 151.5 566.7L153 600Z" fill="#3e3d17"></path><path d="M0 600L0 566.7C0 533.3 0 466.7 0 400C0 333.3 0 266.7 0 200C0 133.3 0 66.7 0 33.3L0 0L63 0L63 33.3C63 66.7 63 133.3 63 200C63 266.7 63 333.3 63 400C63 466.7 63 533.3 63 566.7L63 600Z" fill="#090907"></path></svg>